<?xml version="1.0" encoding="UTF-8" standalone="no"?>
<svg width="320px" height="339px" viewBox="0 0 320 339" version="1.1" xmlns="http://www.w3.org/2000/svg" xmlns:xlink="http://www.w3.org/1999/xlink">
    <!-- Generator: Sketch 3.8.2 (29753) - http://www.bohemiancoding.com/sketch -->
    <title>Venti 3</title>
    <desc>Logo property of Tipping Media LLC.</desc>
    <defs></defs>
    <g id="Page-1" stroke="none" stroke-width="1" fill="none" fill-rule="evenodd">
        <g id="Group" fill="#FFFFFF">
            <path d="M254.886234,56.7909981 L320,56.7909981 L320,339 L0,339 L0,56.7909981 L65,56.7909981 L65,0 L109.886234,0 L109.886234,56.7909981 L210,56.7909981 L210,0 L254.886234,0 L254.886234,56.7909981 Z M27,194.006982 C27,191.241702 29.2479554,189 32.0072671,189 L288.992733,189 C291.75817,189 294,191.229659 294,194.006982 L294,304.993018 C294,307.758298 291.752045,310 288.992733,310 L32.0072671,310 C29.2418298,310 27,307.770341 27,304.993018 L27,194.006982 Z" id="Combined-Shape"></path>
        </g>
    </g>
</svg>