<?xml version="1.0" encoding="UTF-8"?>
<svg width="300px" height="290px" viewBox="0 0 300 290" version="1.1" xmlns="http://www.w3.org/2000/svg" xmlns:xlink="http://www.w3.org/1999/xlink">
    <!-- Generator: Sketch 43.2 (39069) - http://www.bohemiancoding.com/sketch -->
    <title>icon</title>
    <desc>Created with Sketch.</desc>
    <defs>
        <rect id="path-1" x="0" y="0" width="33" height="43"></rect>
        <rect id="path-3" x="0" y="0" width="33" height="43"></rect>
        <linearGradient x1="54.205%" y1="100%" x2="45.9641185%" y2="2.01092156%" id="linearGradient-5">
            <stop stop-color="#DA5A47" offset="0%"></stop>
            <stop stop-color="#F67866" offset="100%"></stop>
        </linearGradient>
    </defs>
    <g id="Page-1" stroke="none" stroke-width="1" fill="none" fill-rule="evenodd">
        <g id="icon">
            <rect id="Rectangle-2" fill="#FFFFFF" fill-rule="nonzero" x="0" y="100" width="300" height="190"></rect>
            <g id="logotype" transform="translate(31.000000, 170.000000)">
                <path d="M0,0 L16,0 L28,38 L39,0 L54,0 L34,54 L19,54 L0,0 Z M86,51 C85.2510428,51.3877841 84.4428222,51.7994665 83,52 C82.481864,52.7025255 81.3291559,53.127488 80,54 C78.6792123,53.9243048 77.1952662,54.2695869 76,55 C73.9093363,54.8539191 72.1603998,55 70,55 C63.4155862,55 58.1422777,53.2603096 54,50 C50.8284336,46.3014434 49,41.4276542 49,35 C49,32.6626701 49.3974856,30.2058554 50,28 C50.9874517,25.3718339 52.1931579,23.220461 54,21 C55.426089,19.4488618 57.4665149,17.9216526 60,17 C62.3954098,15.5843235 65.2705554,15 69,15 C71.1004311,15 73.498594,15.4382426 76,16 C78.003498,17.1912394 79.9644268,18.5192474 82,20 C83.3033556,22.0783622 84.615058,24.3094155 86,27 C86.5230173,29.6746482 87,32.8220271 87,36 L87,39 L62,39 C61.7726641,39.6215171 61.9449079,40.2855211 62,41 C62.5278955,41.6666701 63.0313772,42.317394 64,43 C64.4623467,43.5391797 65.416312,44.0305426 67,44 C67.8012612,44.7742382 69.2719578,44.9601594 71,45 C73.2998719,44.9601594 75.3800464,44.6679976 77,44 C79.1429662,43.4993331 80.6136628,42.8884494 82,42 L86,51 Z M75,31 C75,30.3599968 74.8702608,29.6933368 75,29 C74.3512961,28.3066632 73.9491045,27.6666696 73,27 C72.8592787,26.4933304 72.1846348,26.000002 71,26 C70.5758443,25.199998 69.6028001,25 68,25 C67.371252,25 66.4111818,25.199998 66,26 C64.7504949,26.000002 64.0758509,26.4933304 64,27 C63.0379216,27.6666696 62.6487039,28.3066632 62,29 C62.1297392,29.6933368 62,30.3599968 62,31 L75,31 Z M91,16 L104,16 L104,20 C105.206852,19.0186676 106.056599,18.2365178 107,18 C107.968558,16.9419055 108.951078,16.4294625 110,16 C110.969257,15.674272 111.9385,15.4045651 113,15 C113.797349,15.0809121 114.607264,15 115,15 C117.262763,15 119.081753,15.2831922 121,16 C122.427681,16.4159779 123.874907,17.3060105 125,19 C126.317966,19.7334086 127.273931,21.2977083 128,23 C128.65479,25.1276029 129,27.4066258 129,30 L129,54 L116,54 L116,33 C115.536688,31.3983308 115.151646,29.8879725 114,29 C113.611457,27.622401 112.376668,27.0560166 111,27 C109.455619,27.0560166 108.446545,27.2448114 108,28 C106.853245,28.0000019 106.215935,28.5124449 106,29 C105.259956,29.8070572 104.928023,30.5217803 105,31 C104.556253,32.0861035 104.463312,32.8817387 104,34 L104,54 L91,54 L91,16 Z M138,26 L132,26 L132,16 L138,16 L138,5 L151,5 L151,16 L161,16 L161,26 L151,26 L151,39 C151.312649,42.6144475 152.800303,44.1760905 156,44 C156.641214,44.1760905 157.493234,43.9876163 158,44 C159.170251,43.2337084 159.941126,42.8029103 161,42 L166,51 C164.268886,52.0651656 162.348459,53.1152359 160,54 C158.128868,54.6230517 155.965007,55 154,55 C150.663469,55 148.08036,54.5692019 146,54 C143.914866,52.8459838 142.251398,51.6478267 141,50 C139.762921,48.5783445 138.883853,46.7339903 138,45 C137.856004,42.4259451 137.599045,40.0834806 138,38 L138,26 Z M168,0 L182,0 L182,11 L168,11 L168,0 Z M168,16 L182,16 L182,54 L168,54 L168,16 Z" id="Venti-2" fill="#4A4A4A" fill-rule="nonzero"></path>
                <path d="M196,46.74 C196,46.74 202.46,54.112 212.568,54.112 C221.764,54.112 229.44,46.968 229.44,37.848 C229.44,25.308 218.268,22.116 211.884,22.116 L229.06,2.28 L229.06,0 L198.584,0 L198.584,3.04 L220.396,3.04 C223.056,3.04 224.5,2.888 224.5,2.888 L224.5,3.04 C224.5,3.04 223.284,4.104 222.144,5.472 L207.248,22.876 L208.16,25.156 L211.808,25.156 C219.028,25.156 226.02,29.564 226.02,37.848 C226.02,45.676 219.484,50.92 212.72,50.92 C203.98,50.92 198.432,44.308 198.432,44.308 L196,46.74 Z" id="3" fill="#DA5A47"></path>
            </g>
            <g id="Rectangle-3" transform="translate(60.000000, 10.000000)">
                <g id="path-1-Clipped">
                    <mask id="mask-2" fill="white">
                        <use xlink:href="#path-1"></use>
                    </mask>
                    <g id="path-1"></g>
                    <rect id="path-1" stroke="#979797" stroke-width="2" fill="#FFFFFF" fill-rule="nonzero" mask="url(#mask-2)" x="0" y="0" width="33" height="43"></rect>
                </g>
            </g>
            <g id="Rectangle-3-Copy" transform="translate(209.000000, 10.000000)">
                <g id="path-3-Clipped">
                    <mask id="mask-4" fill="white">
                        <use xlink:href="#path-3"></use>
                    </mask>
                    <g id="path-3"></g>
                    <rect id="path-3" stroke="#979797" stroke-width="2" fill="#FFFFFF" fill-rule="nonzero" mask="url(#mask-4)" x="0" y="0" width="33" height="43"></rect>
                </g>
            </g>
            <path d="M294,25 L250,25 L250,6 C250,2.784 247.2,0 244,0 L206,0 C202.8125,0 200,2.784 200,6 L200,25 L100,25 L100,6 C100,2.784 97.2,0 94,0 L56,0 C52.8125,0 50,2.784 50,6 L50,25 L6,25 C2.8125,24.8571429 0,27.6411429 0,31 L0,87 L300,87 L300,31 C300,27.6411429 297.2,24.8571429 294,25 L294,25 Z M88,49 L63,49 L63,12 L88,12 L88,49 L88,49 Z M238,49 L213,49 L213,12 L238,12 L238,49 L238,49 Z" id="Shape" fill="url(#linearGradient-5)" fill-rule="nonzero"></path>
            <path d="M287,277 L274,277 L274,290 L293.5,290 L300,290 L300,264 L287,264 L287,277 Z M13,277 L26,277 L26,290 L0,290 L0,283.5 L0,264 L13,264 L13,277 Z M300,106.5 L300,126 L287,126 L287,113 L274,113 L274,100 L300,100 L300,106.5 Z M6.5,100 L0,100 L0,126 L13,126 L13,113 L26,113 L26,100 L6.5,100 Z M240,100 L266,100 L266,113 L240,113 L240,100 Z M240,277 L266,277 L266,290 L240,290 L240,277 Z M206,100 L232,100 L232,113 L206,113 L206,100 Z M206,277 L232,277 L232,290 L206,290 L206,277 Z M171,100 L197,100 L197,113 L171,113 L171,100 Z M171,277 L197,277 L197,290 L171,290 L171,277 Z M137,100 L163,100 L163,113 L137,113 L137,100 Z M137,277 L163,277 L163,290 L137,290 L137,277 Z M103,100 L129,100 L129,113 L103,113 L103,100 Z M103,277 L129,277 L129,290 L103,290 L103,277 Z M69,100 L95,100 L95,113 L69,113 L69,100 Z M69,277 L95,277 L95,290 L69,290 L69,277 Z M34,100 L60,100 L60,113 L34,113 L34,100 Z M34,277 L60,277 L60,290 L34,290 L34,277 Z M0,133 L13,133 L13,159 L0,159 L0,133 Z M287,133 L300,133 L300,159 L287,159 L287,133 Z M0,166 L13,166 L13,192 L0,192 L0,166 Z M287,166 L300,166 L300,192 L287,192 L287,166 Z M0,198 L13,198 L13,224 L0,224 L0,198 Z M287,198 L300,198 L300,224 L287,224 L287,198 Z M0,231 L13,231 L13,257 L0,257 L0,231 Z M287,231 L300,231 L300,257 L287,257 L287,231 Z" id="Combined-Shape" fill="#D8D7D7" fill-rule="nonzero"></path>
        </g>
    </g>
</svg>